<svg width="480" height="120" viewBox="0 0 480 120" fill="none" xmlns="http://www.w3.org/2000/svg">
  <rect width="120" height="120" rx="28" fill="#4F46E5"/>
  <path d="M81 36C75 29 67 26 57 26C42 26 32 34 32 46C32 59 42 64 57 68C68 71 72 74 72 80C72 87 66 91 57 91C47 91 39 87 32 79L22 89C30 100 42 106 57 106C75 106 87 96 87 80C87 66 78 60 61 55C51 52 47 50 47 45C47 40 51 37 58 37C65 37 71 40 76 46L81 36Z" fill="white"/>
  <text x="146" y="78" fill="#1B1B23" font-family="Arial, sans-serif" font-size="54" font-weight="700" letter-spacing="3">STUNDAA</text>
</svg>
